<svg aria-hidden="true" style="position: absolute; width: 0; height: 0; overflow: hidden;" version="1.1" xmlns="http://www.w3.org/2000/svg" xmlns:xlink="http://www.w3.org/1999/xlink">
<defs>
<symbol id="icon-earth" viewBox="0 0 32 32">
<title>earth</title>
<path d="M27.966 26.605c2.507-2.825 4.034-6.54 4.034-10.605 0-4.23-1.653-8.079-4.343-10.943 0 0 0-0.001 0-0.001-0.002-0.003-0.006-0.004-0.007-0.007-2.802-2.979-6.728-4.886-11.095-5.035l-0.001-0.001-0.312-0.008c-0.081-0.003-0.161-0.006-0.242-0.006s-0.162 0.003-0.242 0.006l-0.311 0.008-0.001 0.001c-4.367 0.15-8.293 2.056-11.095 5.035-0.002 0.003-0.006 0.004-0.007 0.007 0 0 0 0.001-0.001 0.001-2.691 2.863-4.344 6.712-4.344 10.942 0 4.066 1.527 7.78 4.034 10.605 0.003 0.005 0.003 0.010 0.007 0.015 0.010 0.014 0.024 0.020 0.035 0.033 2.817 3.149 6.859 5.178 11.37 5.332l0.001 0.001 0.311 0.008c0.081 0.002 0.162 0.005 0.243 0.005s0.162-0.003 0.242-0.006l0.311-0.008 0.001-0.001c4.516-0.155 8.562-2.188 11.379-5.343 0.007-0.009 0.019-0.012 0.025-0.022 0.004-0.004 0.004-0.010 0.008-0.015zM1.117 16.552h6.622c0.062 2.339 0.519 4.611 1.332 6.74-1.569 0.568-3.069 1.329-4.475 2.279-2.067-2.459-3.354-5.593-3.48-9.020zM4.898 6.082c1.373 0.893 2.834 1.608 4.359 2.142-0.934 2.266-1.45 4.709-1.517 7.225h-6.622c0.132-3.59 1.538-6.859 3.781-9.367zM30.883 15.448h-6.622c-0.067-2.516-0.584-4.959-1.517-7.225 1.524-0.534 2.986-1.249 4.359-2.142 2.243 2.508 3.649 5.777 3.781 9.367zM15.448 8.255c-1.595-0.045-3.161-0.283-4.674-0.708 1.118-2.294 2.697-4.365 4.674-6.089v6.797zM15.448 9.359v6.089h-6.605c0.068-2.399 0.571-4.726 1.471-6.883 1.658 0.481 3.38 0.746 5.134 0.793zM16.552 9.359c1.754-0.047 3.476-0.312 5.135-0.793 0.9 2.157 1.403 4.484 1.471 6.883h-6.606v-6.089zM16.552 8.255v-6.797c1.976 1.724 3.555 3.795 4.674 6.089-1.513 0.425-3.079 0.663-4.674 0.708zM22.295 7.212c-1.060-2.221-2.531-4.244-4.352-5.978 3.231 0.423 6.138 1.884 8.377 4.038-1.271 0.807-2.62 1.455-4.025 1.94zM9.705 7.212c-1.405-0.485-2.754-1.134-4.024-1.94 2.238-2.154 5.146-3.615 8.377-4.038-1.822 1.734-3.293 3.757-4.353 5.978zM8.843 16.552h6.605v5.538c-1.825 0.049-3.612 0.333-5.33 0.85-0.776-2.017-1.213-4.171-1.275-6.388zM15.448 23.193v7.348c-2.115-1.846-3.774-4.088-4.902-6.575 1.582-0.466 3.225-0.726 4.902-0.773zM16.552 30.541v-7.348c1.677 0.047 3.32 0.307 4.902 0.772-1.128 2.488-2.786 4.73-4.902 6.575zM16.552 22.090v-5.538h6.605c-0.062 2.217-0.499 4.372-1.276 6.389-1.718-0.518-3.505-0.802-5.33-0.851zM24.26 16.552h6.622c-0.126 3.426-1.412 6.561-3.48 9.020-1.406-0.95-2.906-1.711-4.475-2.279 0.814-2.129 1.27-4.402 1.332-6.74zM5.347 26.398c1.305-0.867 2.695-1.565 4.147-2.086 1.073 2.406 2.614 4.598 4.563 6.454-3.394-0.444-6.431-2.033-8.711-4.368zM17.943 30.766c1.95-1.856 3.49-4.048 4.563-6.454 1.452 0.521 2.841 1.219 4.147 2.086-2.28 2.335-5.317 3.924-8.711 4.368z"></path>
</symbol>
<symbol id="icon-hands" viewBox="0 0 32 32">
<title>hands</title>
<path d="M28.771 21.292l2.189-2.189c1.386-1.386 1.386-3.641 0-5.027-0.425-0.425-0.936-0.724-1.482-0.889 0.446-0.606 0.688-1.336 0.688-2.103 0-0.949-0.37-1.842-1.041-2.514s-1.564-1.041-2.514-1.041c-0.040 0-0.080 0.001-0.119 0.002 0.031-0.949-0.315-1.908-1.038-2.632s-1.684-1.069-2.631-1.037c0.001-0.040 0.002-0.080 0.002-0.119 0-0.95-0.37-1.842-1.041-2.514-1.386-1.386-3.641-1.386-5.027 0l-0.757 0.757-0.757-0.757c-0.671-0.672-1.564-1.042-2.514-1.042s-1.842 0.37-2.513 1.041c-0.723 0.723-1.068 1.683-1.037 2.633-0.040-0.001-0.080-0.003-0.12-0.003-0.949 0-1.842 0.37-2.514 1.041-0.723 0.723-1.068 1.683-1.036 2.633-0.040-0.001-0.080-0.003-0.121-0.003-0.949 0-1.842 0.37-2.513 1.041s-1.042 1.564-1.042 2.514c0 0.767 0.241 1.496 0.688 2.102-0.554 0.167-1.061 0.469-1.482 0.89-1.383 1.383-1.386 3.631-0.009 5.018 0.003 0.004 0.007 0.007 0.010 0.011l2.192 2.192c0.003 0.003 0.006 0.006 0.009 0.010 0.132 0.132 0.272 0.251 0.42 0.359l-0.648 0.648c-0.631 0.631-0.952 1.49-0.904 2.419 0.045 0.892 0.429 1.742 1.081 2.394l3.708 3.709c0.688 0.688 1.591 1.032 2.495 1.032s1.807-0.344 2.495-1.032l1.724-1.724c0.786 0.169 1.587 0.254 2.389 0.254s1.602-0.085 2.388-0.254l1.723 1.723c0.688 0.688 1.591 1.032 2.495 1.032s1.807-0.344 2.495-1.032l3.709-3.709c1.375-1.375 1.532-3.457 0.348-4.641l-0.79-0.79 0.39-0.39c0.004-0.004 0.009-0.008 0.013-0.013zM11.573 2.586c0.309-0.309 0.72-0.479 1.157-0.479s0.848 0.17 1.157 0.479l2.936 2.936c0.638 0.638 0.638 1.676 0 2.314-0.309 0.309-0.72 0.479-1.157 0.479h-0c-0.437-0-0.848-0.17-1.157-0.479-0.001-0-0.001-0.001-0.001-0.001l-2.935-2.935c-0.002-0.002-0.005-0.005-0.007-0.007-0.631-0.639-0.629-1.672 0.007-2.308zM7.898 8.566c-0.634-0.638-0.632-1.673 0.004-2.31 0.309-0.309 0.72-0.479 1.157-0.479s0.847 0.17 1.156 0.479c0 0 0.001 0 0.001 0 0.001 0.001 0.002 0.002 0.003 0.003l2.933 2.933c0.002 0.002 0.004 0.004 0.006 0.006l0.729 0.729c0.309 0.309 0.479 0.72 0.479 1.157s-0.17 0.848-0.479 1.157c-0.309 0.309-0.72 0.479-1.157 0.479s-0.848-0.17-1.157-0.479c-0.004-0.004-0.008-0.008-0.012-0.011l-0.719-0.72c-0.001-0.001-0.002-0.002-0.003-0.003l-2.937-2.936c0 0-0-0-0-0-0.001-0.001-0.003-0.003-0.004-0.004zM4.232 9.927c0.309-0.309 0.719-0.479 1.157-0.479s0.848 0.17 1.157 0.479l2.94 2.94c0.635 0.638 0.634 1.674-0.003 2.311-0.309 0.309-0.72 0.479-1.157 0.479s-0.848-0.17-1.157-0.479c-0.004-0.004-0.008-0.008-0.011-0.011l-2.916-2.916c-0.003-0.003-0.006-0.007-0.009-0.010-0.309-0.309-0.479-0.72-0.479-1.157s0.17-0.848 0.48-1.157zM2.406 17.756c-0.004-0.004-0.007-0.008-0.011-0.011-0.637-0.638-0.636-1.675 0.001-2.313 0.309-0.309 0.72-0.479 1.157-0.479s0.848 0.17 1.157 0.479l2.202 2.202c0.638 0.638 0.638 1.676 0 2.314-0.309 0.309-0.72 0.479-1.157 0.479h-0c-0.080 0-0.16-0.006-0.238-0.017-0.006-0.001-0.012-0.002-0.018-0.003-0.337-0.052-0.648-0.208-0.895-0.452-0.002-0.003-0.005-0.005-0.008-0.008zM13.559 27.127c-0.008-0.002-0.016-0.003-0.024-0.005-0.019-0.005-0.038-0.009-0.058-0.012-0.014-0.002-0.028-0.004-0.043-0.006-0.016-0.002-0.032-0.004-0.048-0.005s-0.034-0.002-0.051-0.002c-0.014-0-0.027-0.001-0.041-0-0.018 0-0.036 0.001-0.054 0.003-0.013 0.001-0.026 0.002-0.039 0.003-0.018 0.002-0.035 0.005-0.052 0.008-0.014 0.002-0.027 0.005-0.041 0.008-0.016 0.003-0.031 0.007-0.047 0.011s-0.030 0.008-0.045 0.013c-0.014 0.005-0.027 0.010-0.041 0.014-0.016 0.006-0.032 0.012-0.047 0.019-0.012 0.005-0.025 0.011-0.037 0.017-0.016 0.008-0.031 0.015-0.046 0.024-0.012 0.007-0.025 0.014-0.037 0.022-0.014 0.009-0.028 0.017-0.041 0.026s-0.027 0.020-0.040 0.030c-0.011 0.008-0.022 0.017-0.032 0.025-0.016 0.013-0.031 0.027-0.045 0.041-0.006 0.005-0.012 0.010-0.017 0.016l-2.102 2.102c-0.628 0.628-1.649 0.628-2.276 0l-3.708-3.708c-0.315-0.315-0.5-0.718-0.521-1.135-0.019-0.38 0.103-0.723 0.345-0.964l1.325-1.325c0.020 0 0.041 0.001 0.061 0.001 0 0 0 0 0 0 0.949 0 1.842-0.37 2.513-1.041 1.028-1.028 1.292-2.533 0.796-3.808 0.667-0.141 1.28-0.47 1.774-0.963 0.564-0.564 0.898-1.272 1.003-2.007 0.287 0.073 0.584 0.112 0.888 0.112 0 0 0 0 0 0 0.949 0 1.842-0.37 2.513-1.041s1.041-1.564 1.041-2.514c0-0.303-0.038-0.6-0.111-0.886 0.757-0.107 1.456-0.455 2.006-1.005 1.386-1.386 1.386-3.641 0-5.027l-0.823-0.823 0.757-0.757c0.638-0.638 1.676-0.638 2.314-0 0.309 0.309 0.479 0.72 0.479 1.157s-0.17 0.848-0.479 1.157c-0.187 0.187-0.281 0.433-0.281 0.678s0.093 0.491 0.281 0.678c0.375 0.375 0.982 0.375 1.357 0 0.638-0.638 1.676-0.638 2.314 0s0.638 1.676-0 2.314c-0.187 0.187-0.281 0.433-0.281 0.678s0.093 0.491 0.281 0.678c0.375 0.375 0.982 0.375 1.357 0 0.309-0.309 0.72-0.479 1.157-0.479s0.848 0.17 1.157 0.479c0.309 0.309 0.48 0.72 0.48 1.157 0 0.431-0.166 0.837-0.467 1.144-0.004 0.004-0.009 0.009-0.013 0.013l-1.376 1.376c-0.343 0.343-0.376 0.887-0.078 1.269l0.049 0.063c0.297 0.381 0.832 0.481 1.247 0.234 0.643-0.383 1.463-0.281 1.993 0.249 0.638 0.638 0.638 1.676 0 2.314l-2.202 2.202c-0.004 0.004-0.009 0.009-0.013 0.013l-4.726 4.726c-2.371 2.371-5.86 3.306-9.104 2.44zM27.802 23.842c0.421 0.421 0.258 1.322-0.348 1.928l-3.709 3.708c-0.628 0.628-1.649 0.628-2.276 0l-1.020-1.020c1.326-0.566 2.541-1.383 3.571-2.413l2.992-2.992z"></path>
</symbol>
<symbol id="icon-v" viewBox="0 0 32 32">
<title>v</title>
<path d="M27.331 18.133c0-0.009 0-0.018 0-0.028 0-1.901-1.547-3.448-3.448-3.448h-0.941l4.126-9.952c0.727-1.756-0.11-3.777-1.866-4.505s-3.778 0.11-4.505 1.866l-2.579 6.226-2.579-6.226c-0.728-1.756-2.749-2.594-4.505-1.866s-2.594 2.749-1.866 4.505l2.24 5.409c-0.283 0.167-0.539 0.373-0.763 0.611-0.629-0.669-1.521-1.088-2.51-1.088-1.901 0-3.448 1.547-3.448 3.448v7.531c0 6.243 5.079 11.322 11.322 11.322s11.322-5.079 11.322-11.322zM11.752 1.932c0.801-0.332 1.723 0.050 2.055 0.851l3.445 8.317c0.145 0.35 0.487 0.579 0.866 0.579s0.721-0.229 0.866-0.579l3.445-8.317c0.332-0.801 1.254-1.183 2.055-0.852s1.183 1.254 0.851 2.055l-4.424 10.67h-4.307l0-1.573c-0-1.873-1.501-3.4-3.363-3.446l-2.341-5.651c-0.332-0.801 0.050-1.723 0.851-2.055zM13.156 14.658c-0.566 0-1.101 0.138-1.573 0.381v-1.955c0-0.867 0.706-1.573 1.573-1.573s1.573 0.706 1.573 1.573l-0 1.573zM6.562 13.084c0-0.867 0.706-1.573 1.573-1.573s1.573 0.706 1.573 1.573v5.021c-0 0.867-0.706 1.573-1.573 1.573s-1.573-0.706-1.573-1.573zM16.009 30.063c-5.019 0-9.136-3.935-9.429-8.882 0.468 0.237 0.996 0.372 1.555 0.372 0.989 0 1.881-0.419 2.511-1.088 0.629 0.669 1.521 1.088 2.511 1.088h8.216c0.518 0 0.938-0.42 0.938-0.938s-0.42-0.938-0.938-0.938h-8.216c-0.867 0-1.573-0.706-1.573-1.573s0.706-1.573 1.573-1.573h2.51c0 0 0 0 0 0h0c0 0 0 0 0 0h5.866c0.001 0 0.003 0 0.005 0s0.004-0 0.006-0h2.339c0.864 0 1.567 0.7 1.573 1.562-0 0.009-0 0.017-0 0.026v2.495c0 5.209-4.238 9.447-9.447 9.447z"></path>
</symbol>
<symbol id="icon-money" viewBox="0 0 32 32">
<title>money</title>
<path d="M21.372 20.522c-0.758 0-1.375-0.534-1.375-1.19s0.617-1.19 1.375-1.19 1.375 0.534 1.375 1.19c0 0.345 0.28 0.625 0.625 0.625s0.625-0.28 0.625-0.625c0-1.145-0.853-2.108-2-2.37v-0.325c0-0.345-0.28-0.625-0.625-0.625s-0.625 0.28-0.625 0.625v0.325c-1.147 0.261-2 1.224-2 2.37 0 1.345 1.178 2.44 2.625 2.44 0.758 0 1.375 0.534 1.375 1.19s-0.617 1.19-1.375 1.19c-0.758 0-1.375-0.534-1.375-1.19 0-0.345-0.28-0.625-0.625-0.625s-0.625 0.28-0.625 0.625c0 1.145 0.853 2.108 2 2.37v0.27c0 0.345 0.28 0.625 0.625 0.625s0.625-0.28 0.625-0.625v-0.27c1.147-0.261 2-1.224 2-2.37 0-1.346-1.178-2.44-2.625-2.44z"></path>
<path d="M28.218 16.805c-0.816-1.272-1.967-2.29-3.326-2.944-0.311-0.15-0.685-0.019-0.834 0.293s-0.019 0.684 0.293 0.834c2.369 1.139 3.9 3.573 3.9 6.2 0 1.124-0.277 2.239-0.801 3.224-0.162 0.305-0.047 0.683 0.258 0.845 0.093 0.050 0.194 0.073 0.293 0.073 0.224 0 0.44-0.12 0.552-0.332 0.62-1.165 0.948-2.483 0.948-3.812 0-1.56-0.443-3.076-1.282-4.383z"></path>
<path d="M22.355 13.063l-0.042-0c-0.345 0-0.625 0.28-0.625 0.625s0.28 0.625 0.625 0.625l0.036 0c0.001 0 0.002 0 0.003 0 0.344 0 0.623-0.278 0.625-0.622s-0.277-0.626-0.622-0.628z"></path>
<path d="M18.4 27.388c-2.369-1.139-3.9-3.573-3.9-6.2 0-1.124 0.277-2.239 0.801-3.224 0.162-0.305 0.047-0.683-0.258-0.845s-0.683-0.047-0.845 0.258c-0.62 1.165-0.948 2.483-0.948 3.812 0 1.56 0.443 3.075 1.282 4.383 0.816 1.272 1.967 2.29 3.326 2.944 0.087 0.042 0.18 0.062 0.27 0.062 0.233 0 0.456-0.131 0.564-0.354 0.149-0.311 0.019-0.685-0.293-0.834z"></path>
<path d="M20.438 28.063l-0.036-0c-0.347-0.001-0.626 0.277-0.628 0.622s0.277 0.626 0.622 0.628l0.042 0c0.345 0 0.625-0.28 0.625-0.625s-0.28-0.625-0.625-0.625z"></path>
<path d="M24.213 10.948c-0.076-0.181-0.169-0.352-0.278-0.511h1.627c1.585 0 2.875-1.29 2.875-2.875s-1.29-2.875-2.875-2.875h-5.005c0.318-0.463 0.505-1.022 0.505-1.625 0-1.585-1.29-2.875-2.875-2.875h-15.312c-1.585 0-2.875 1.29-2.875 2.875s1.29 2.875 2.875 2.875h5.005c-0.318 0.463-0.505 1.022-0.505 1.625s0.187 1.162 0.505 1.625h-1.63c-1.585 0-2.875 1.29-2.875 2.875 0 0.91 0.426 1.723 1.088 2.25-0.663 0.527-1.088 1.34-1.088 2.25s0.426 1.723 1.088 2.25c-0.663 0.527-1.088 1.34-1.088 2.25s0.426 1.723 1.088 2.25c-0.663 0.527-1.088 1.34-1.088 2.25 0 1.585 1.29 2.875 2.875 2.875h7.366c1.94 2.075 4.701 3.375 7.759 3.375 5.859 0 10.625-4.766 10.625-10.625 0-4.876-3.302-8.995-7.787-10.24zM25.562 5.938c0.896 0 1.625 0.729 1.625 1.625s-0.729 1.625-1.625 1.625h-15.312c-0.896 0-1.625-0.729-1.625-1.625s0.729-1.625 1.625-1.625h15.312zM2.875 4.688c-0.896 0-1.625-0.729-1.625-1.625s0.729-1.625 1.625-1.625h15.312c0.896 0 1.625 0.729 1.625 1.625s-0.729 1.625-1.625 1.625h-15.312zM6.25 10.437h15.312c0.252 0 0.493 0.059 0.709 0.163-0.296-0.025-0.595-0.038-0.896-0.038-2.934 0-5.594 1.196-7.519 3.125h-7.606c-0.896 0-1.625-0.729-1.625-1.625s0.729-1.625 1.625-1.625zM6.25 14.937h6.538c-0.71 0.972-1.258 2.068-1.606 3.25h-4.932c-0.896 0-1.625-0.729-1.625-1.625s0.729-1.625 1.625-1.625zM6.25 19.437h4.645c-0.095 0.57-0.145 1.154-0.145 1.75 0 0.509 0.037 1.010 0.106 1.5h-4.606c-0.896 0-1.625-0.729-1.625-1.625s0.729-1.625 1.625-1.625zM6.25 27.187c-0.896 0-1.625-0.729-1.625-1.625s0.729-1.625 1.625-1.625h4.862c0.315 1.176 0.828 2.272 1.5 3.25h-6.361zM21.375 30.563c-5.169 0-9.375-4.206-9.375-9.375s4.206-9.375 9.375-9.375 9.375 4.206 9.375 9.375-4.206 9.375-9.375 9.375z"></path>
</symbol>
<symbol id="icon-lamp" viewBox="0 0 32 32">
<title>lamp</title>
<path d="M16 0c-6.746 0-12.234 5.488-12.234 12.234 0 2.321 0.653 4.58 1.888 6.533 1.096 1.733 2.606 3.158 4.388 4.153v3.121c0 3.285 2.673 5.958 5.958 5.958h0c1.591 0 3.087-0.62 4.213-1.745s1.745-2.622 1.745-4.213v-3.122c1.782-0.995 3.291-2.42 4.388-4.153 1.235-1.953 1.888-4.212 1.888-6.533 0-6.746-5.488-12.234-12.234-12.234zM11.917 25.772v-2.478h8.166v2.478zM16 14.561c-0.518 0-0.938 0.42-0.938 0.938v5.921h-3.146v-6.992h8.167l-0 6.992h-3.146v-5.921c0-0.518-0.42-0.938-0.938-0.938zM14.38 11.415h3.24l1.137 1.137h-5.515zM16 30.125c-1.682 0-3.129-1.022-3.754-2.478h7.51c-0.202 0.473-0.494 0.907-0.869 1.282-0.771 0.771-1.797 1.196-2.887 1.196zM21.958 20.712v-7.223c0-0.249-0.099-0.487-0.274-0.663l-5.021-5.021c-0.366-0.366-0.96-0.366-1.326 0l-5.021 5.021c-0.176 0.176-0.275 0.414-0.275 0.663v7.223c-2.747-1.923-4.401-5.048-4.401-8.478 0-5.712 4.647-10.359 10.359-10.359s10.359 4.647 10.359 10.359c0 3.43-1.654 6.555-4.401 8.478z"></path>
<path d="M0.938 11.297c-0.247 0-0.488 0.1-0.663 0.274s-0.274 0.416-0.274 0.663 0.1 0.488 0.274 0.663c0.175 0.174 0.416 0.274 0.663 0.274s0.489-0.1 0.663-0.274c0.174-0.175 0.274-0.416 0.274-0.663s-0.1-0.488-0.274-0.663c-0.175-0.174-0.416-0.274-0.663-0.274z"></path>
<path d="M31.725 11.571c-0.175-0.174-0.416-0.274-0.663-0.274s-0.489 0.1-0.663 0.274c-0.174 0.175-0.274 0.416-0.274 0.663s0.1 0.488 0.274 0.663c0.174 0.174 0.416 0.274 0.663 0.274s0.488-0.1 0.663-0.274c0.175-0.175 0.275-0.416 0.275-0.663s-0.1-0.488-0.275-0.663z"></path>
<path d="M5.349 2.521c0.247 0 0.488-0.1 0.663-0.275s0.274-0.416 0.274-0.663-0.1-0.489-0.274-0.663c-0.175-0.174-0.416-0.274-0.663-0.274s-0.489 0.1-0.663 0.274c-0.174 0.174-0.274 0.416-0.274 0.663s0.1 0.488 0.274 0.663c0.175 0.175 0.416 0.275 0.663 0.275z"></path>
<path d="M26.651 21.948c-0.246 0-0.488 0.101-0.663 0.275s-0.275 0.416-0.275 0.663c0 0.247 0.1 0.489 0.275 0.663s0.416 0.274 0.663 0.274c0.247 0 0.489-0.1 0.663-0.274s0.274-0.416 0.274-0.663c0-0.246-0.1-0.488-0.274-0.663s-0.416-0.275-0.663-0.275z"></path>
<path d="M26.651 2.521c0.246 0 0.488-0.1 0.663-0.275s0.274-0.416 0.274-0.663-0.1-0.489-0.274-0.663c-0.175-0.174-0.416-0.274-0.663-0.274s-0.489 0.1-0.663 0.274c-0.174 0.174-0.274 0.416-0.274 0.663s0.1 0.488 0.274 0.663c0.175 0.175 0.416 0.275 0.663 0.275z"></path>
<path d="M5.349 21.948c-0.247 0-0.489 0.101-0.663 0.275s-0.274 0.416-0.274 0.663c0 0.247 0.1 0.489 0.274 0.663s0.416 0.274 0.663 0.274c0.247 0 0.488-0.1 0.663-0.274s0.275-0.416 0.275-0.663c0-0.246-0.1-0.488-0.275-0.663s-0.416-0.275-0.663-0.275z"></path>
</symbol>
<symbol id="icon-document" viewBox="0 0 32 32">
<title>document</title>
<path d="M31.725 10.316l-10.041-10.042c-0.176-0.176-0.414-0.275-0.663-0.275h-12.552c-1.901 0-3.448 1.547-3.448 3.448v12.116h-1.573c-1.901 0-3.448 1.547-3.448 3.448v4.017c0 1.901 1.547 3.448 3.448 3.448h1.573v2.075c0 1.901 1.547 3.448 3.448 3.448h20.083c1.901 0 3.448-1.547 3.448-3.448v-17.573c0-0.249-0.099-0.487-0.275-0.663zM21.958 3.201l6.841 6.841h-5.268c-0.867 0-1.573-0.706-1.573-1.573zM1.875 23.029v-4.017c0-0.867 0.706-1.573 1.573-1.573h17.573c0.867 0 1.573 0.706 1.573 1.573v4.017c0 0.867-0.706 1.573-1.573 1.573h-17.573c-0.867 0-1.573-0.706-1.573-1.573zM28.552 30.125h-20.083c-0.867 0-1.573-0.706-1.573-1.573v-2.075h14.125c1.901 0 3.448-1.547 3.448-3.448v-4.017c0-1.901-1.547-3.448-3.448-3.448h-14.125v-12.116c0-0.867 0.706-1.573 1.573-1.573h11.614v6.594c0 1.901 1.547 3.448 3.448 3.448h6.594v16.635c0 0.867-0.706 1.573-1.573 1.573z"></path>
</symbol>
<symbol id="icon-arrow" viewBox="0 0 32 32">
<title>arrow</title>
<path d="M31.725 30.4l-3.768-3.769c2.613-2.932 4.043-6.671 4.043-10.631 0-3.080-0.867-6.040-2.513-8.611l2.238-2.238c0.23-0.23 0.324-0.562 0.25-0.878s-0.308-0.571-0.616-0.674l-2.218-0.74-0.739-2.218c-0.103-0.308-0.358-0.541-0.674-0.616s-0.648 0.020-0.878 0.249l-2.238 2.239c-2.571-1.646-5.531-2.513-8.611-2.513-4.274 0-8.292 1.664-11.314 4.686s-4.686 7.040-4.686 11.314c0 3.96 1.43 7.699 4.043 10.631l-3.769 3.769c-0.366 0.366-0.366 0.96 0 1.326 0.183 0.183 0.423 0.275 0.663 0.275s0.48-0.092 0.663-0.275l3.769-3.769c2.932 2.614 6.671 4.043 10.631 4.043s7.699-1.43 10.631-4.043l3.769 3.769c0.183 0.183 0.423 0.275 0.663 0.275s0.48-0.092 0.663-0.275c0.366-0.366 0.366-0.959 0-1.326zM27.103 2.673l0.408 1.223c0.093 0.28 0.313 0.5 0.593 0.593l1.224 0.408-2.068 2.068-1.668-0.556-0.556-1.668zM20.083 16c0 2.251-1.832 4.083-4.084 4.083s-4.083-1.832-4.083-4.083c0-2.251 1.832-4.083 4.083-4.083 0.787 0 1.522 0.224 2.146 0.611l-2.809 2.809c-0.366 0.366-0.366 0.96 0 1.326 0.183 0.183 0.423 0.275 0.663 0.275s0.48-0.092 0.663-0.275l2.809-2.809c0.387 0.624 0.612 1.359 0.612 2.146zM19.496 11.178c-0.983-0.714-2.191-1.136-3.496-1.136-3.285 0-5.958 2.673-5.958 5.958s2.673 5.958 5.958 5.958c3.285 0 5.959-2.673 5.959-5.958 0-1.305-0.422-2.513-1.137-3.496l2.241-2.241c1.275 1.567 2.041 3.564 2.041 5.737 0 5.020-4.084 9.104-9.104 9.104s-9.104-4.084-9.104-9.104c0-5.020 4.084-9.104 9.104-9.104 2.173 0 4.17 0.766 5.738 2.041zM1.875 16c0-7.789 6.336-14.125 14.125-14.125 2.581 0 5.066 0.689 7.252 2.001-0.215 0.249-0.284 0.594-0.179 0.909l0.705 2.113-0.709 0.709c-1.911-1.612-4.378-2.585-7.068-2.585-6.054 0-10.979 4.925-10.979 10.979s4.925 10.979 10.979 10.979c6.054 0 10.979-4.925 10.979-10.979 0-2.69-0.973-5.157-2.585-7.068l0.709-0.709 2.113 0.705c0.097 0.032 0.197 0.048 0.296 0.048 0.222 0 0.44-0.080 0.612-0.228 1.312 2.186 2.001 4.671 2.001 7.253 0 7.789-6.336 14.125-14.125 14.125s-14.125-6.336-14.125-14.125z"></path>
</symbol>
<symbol id="icon-goiteens_logo-01" viewBox="0 0 122 32">
<title>goiteens_logo-01</title>
<path fill="#fcae26" style="fill: var(--color1, #fcae26)" d="M46.065 4.8l73.531-4.481 1.622 26.621-73.531 4.481-1.622-26.621z"></path>
<path fill="#fff" style="fill: var(--color2, #fff); stroke: var(--color2, #fff)" stroke="#fff" stroke-linejoin="miter" stroke-linecap="butt" stroke-miterlimit="10" stroke-width="0.8030" d="M56.062 12.166l2.466-0.149 0.683 11.219-2.466 0.149-0.683-11.219z"></path>
<path fill="#fff" style="fill: var(--color2, #fff); stroke: var(--color2, #fff)" stroke="#fff" stroke-linejoin="miter" stroke-linecap="butt" stroke-miterlimit="10" stroke-width="0.8030" d="M65.342 13.886l-3.413 0.207-0.138-2.277 9.298-0.568 0.138 2.277-3.413 0.207 0.545 8.948-2.466 0.149-0.551-8.942z"></path>
<path fill="#fff" style="fill: var(--color2, #fff); stroke: var(--color2, #fff)" stroke="#fff" stroke-linejoin="miter" stroke-linecap="butt" stroke-miterlimit="10" stroke-width="0.8030" d="M72.007 18.165c-0.149-2.455 1.474-4.577 3.975-4.732 2.868-0.172 4.319 1.973 4.468 4.411 0.011 0.195 0.011 0.419 0.006 0.642l-5.977 0.367c0.31 1.090 1.113 1.623 2.203 1.554 0.82-0.052 1.394-0.344 2.030-1.009l1.468 1.147c-0.74 1.044-1.858 1.721-3.413 1.818-2.581 0.155-4.594-1.537-4.761-4.199zM78.024 17.104c-0.212-1.084-0.895-1.778-1.921-1.715-1.010 0.063-1.623 0.82-1.749 1.939l3.671-0.224z"></path>
<path fill="#fff" style="fill: var(--color2, #fff); stroke: var(--color2, #fff)" stroke="#fff" stroke-linejoin="miter" stroke-linecap="butt" stroke-miterlimit="10" stroke-width="0.8030" d="M82.796 17.506c-0.149-2.455 1.474-4.577 3.975-4.732 2.868-0.172 4.319 1.973 4.468 4.411 0.011 0.195 0.011 0.419 0.006 0.642l-5.977 0.367c0.31 1.090 1.113 1.623 2.203 1.554 0.82-0.052 1.394-0.344 2.030-1.009l1.468 1.147c-0.74 1.044-1.858 1.721-3.413 1.818-2.581 0.161-4.594-1.537-4.761-4.199zM88.813 16.445c-0.212-1.084-0.895-1.778-1.921-1.715-1.010 0.063-1.623 0.82-1.749 1.939l3.671-0.224z"></path>
<path fill="#fff" style="fill: var(--color2, #fff); stroke: var(--color2, #fff)" stroke="#fff" stroke-linejoin="miter" stroke-linecap="butt" stroke-miterlimit="10" stroke-width="0.8030" d="M93.74 12.51l2.438-0.149 0.075 1.216c0.516-0.757 1.199-1.457 2.432-1.531 1.841-0.115 2.994 1.038 3.115 3.011l0.338 5.564-2.438 0.149-0.293-4.795c-0.069-1.153-0.654-1.715-1.583-1.658s-1.486 0.688-1.417 1.841l0.293 4.795-2.438 0.149-0.522-8.592z"></path>
<path fill="#fff" style="fill: var(--color2, #fff); stroke: var(--color2, #fff)" stroke="#fff" stroke-linejoin="miter" stroke-linecap="butt" stroke-miterlimit="10" stroke-width="0.8030" d="M104.472 19.341l0.946-1.669c0.969 0.619 1.967 0.912 2.77 0.86 0.706-0.040 1.010-0.321 0.987-0.734-0.034-0.528-0.878-0.654-1.841-0.883-1.222-0.281-2.621-0.757-2.725-2.455-0.109-1.749 1.245-2.811 2.977-2.914 1.090-0.069 2.3 0.229 3.269 0.797l-0.826 1.738c-0.878-0.447-1.749-0.7-2.375-0.66-0.591 0.034-0.883 0.31-0.86 0.683 0.029 0.482 0.86 0.654 1.813 0.918 1.227 0.327 2.656 0.82 2.753 2.421 0.115 1.91-1.256 2.862-3.115 2.971-1.21 0.075-2.581-0.247-3.774-1.073z"></path>
<path fill="#000" style="fill: var(--color3, #000)" d="M48.582 12.693l-9.085-11.667-39.049 2.38 1.623 26.626 39.049-2.38 7.629-12.298 0.843-1.377z"></path>
<path fill="#fff" style="fill: var(--color2, #fff); stroke: var(--color2, #fff)" stroke="#fff" stroke-linejoin="miter" stroke-linecap="butt" stroke-miterlimit="10" stroke-width="0.8030" d="M10.41 16.112c-0.195-3.189 2.134-5.954 5.529-6.16 2.019-0.12 3.269 0.35 4.503 1.268l-1.44 1.973c-0.912-0.671-1.704-1.038-3.006-0.958-1.795 0.109-3.126 1.784-3.006 3.723 0.126 2.053 1.629 3.47 3.614 3.35 0.901-0.057 1.686-0.327 2.283-0.814l-0.098-1.6-2.484 0.149-0.132-2.134 4.875-0.298 0.298 4.875c-1.096 1.050-2.633 1.944-4.686 2.071-3.493 0.212-6.046-2.094-6.252-5.443z"></path>
<path fill="#fff" style="fill: var(--color2, #fff); stroke: var(--color2, #fff)" stroke="#fff" stroke-linejoin="miter" stroke-linecap="butt" stroke-miterlimit="10" stroke-width="0.8030" d="M25.301 15.286c-0.195-3.189 2.162-5.954 5.627-6.166s6.103 2.22 6.304 5.443c0.195 3.189-2.162 5.954-5.627 6.166-3.464 0.206-6.109-2.226-6.304-5.443zM34.644 14.712c-0.115-1.921-1.623-3.441-3.614-3.321s-3.269 1.778-3.149 3.734c0.115 1.921 1.623 3.441 3.614 3.321 1.985-0.12 3.269-1.778 3.149-3.734z"></path>
</symbol>
<symbol id="icon-quote" viewBox="0 0 40 32">
<title>quote</title>
<path fill="#fff" style="fill: var(--color2, #fff); stroke: var(--color2, #fff)" stroke="#fff" stroke-linejoin="miter" stroke-linecap="butt" stroke-miterlimit="10" stroke-width="0.8030" d="M25.301 15.286c-0.195-3.189 2.162-5.954 5.627-6.166s6.103 2.22 6.304 5.443c0.195 3.189-2.162 5.954-5.627 6.166-3.464 0.206-6.109-2.226-6.304-5.443zM34.644 14.712c-0.115-1.921-1.623-3.441-3.614-3.321s-3.269 1.778-3.149 3.734c0.115 1.921 1.623 3.441 3.614 3.321 1.985-0.12 3.269-1.778 3.149-3.734z"></path>
</symbol>
<symbol id="icon-right-arrow" viewBox="0 0 32 32">
<title>right-arrow</title>
<path d="M31.805 15.529l-10-10c-0.26-0.26-0.682-0.26-0.943 0s-0.26 0.682 0 0.943l8.862 8.862h-29.057c-0.368 0-0.667 0.298-0.667 0.667s0.298 0.667 0.667 0.667h29.057l-8.862 8.862c-0.26 0.26-0.26 0.682 0 0.943 0.13 0.13 0.301 0.195 0.471 0.195s0.341-0.065 0.471-0.195l10-10c0.26-0.26 0.26-0.682-0-0.943z"></path>
</symbol>
<symbol id="icon-title-1" viewBox="0 0 32 32">
<title>title-1</title>
<path d="M16 10.667c-2.947 0-5.333 2.387-5.333 5.333s2.387 5.333 5.333 5.333 5.333-2.387 5.333-5.333-2.387-5.333-5.333-5.333zM27.92 14.667c-0.613-5.56-5.027-9.973-10.587-10.587v-2.747h-2.667v2.747c-5.56 0.613-9.973 5.027-10.587 10.587h-2.747v2.667h2.747c0.613 5.56 5.027 9.973 10.587 10.587v2.747h2.667v-2.747c5.56-0.613 9.973-5.027 10.587-10.587h2.747v-2.667h-2.747zM16 25.333c-5.16 0-9.333-4.173-9.333-9.333s4.173-9.333 9.333-9.333 9.333 4.173 9.333 9.333-4.173 9.333-9.333 9.333z"></path>
</symbol>
<symbol id="icon-title-2" viewBox="0 0 32 32">
<title>title-2</title>
<path d="M17.333 17.333v10.667h10.667v-10.667h-10.667zM4 28h10.667v-10.667h-10.667v10.667zM4 4v10.667h10.667v-10.667h-10.667zM22.213 2.253l-7.547 7.533 7.547 7.547 7.547-7.547-7.547-7.533z"></path>
</symbol>
<symbol id="icon-title-3" viewBox="0 0 32 32">
<title>title-3</title>
<path d="M14.667 12.213v-9.547c-6.667 0.667-12 6.387-12 13.333s5.333 12.667 12 13.333v-9.547c-1.333-0.547-2.667-2.027-2.667-3.787s1.333-3.24 2.667-3.787zM19.813 14.667h9.52c-0.64-6.333-5.333-11.373-12-12v9.547c1.333 0.4 2.027 1.307 2.48 2.453zM17.333 19.787v9.547c6.667-0.627 11.36-5.667 12-12h-9.52c-0.453 1.147-1.147 2.053-2.48 2.453z"></path>
</symbol>
<symbol id="icon-telegram" viewBox="0 0 36 32">
<title>telegram</title>
<path fill="#ffffff" d="M31.88 5.053l-4.813 22.733c-0.333 1.613-1.307 2-2.667 1.253l-7.333-5.427-3.547 3.427c-0.4 0.4-0.733 0.747-1.467 0.747-0.96 0-0.8-0.36-1.12-1.267l-2.533-8.253-7.267-2.267c-1.573-0.467-1.587-1.547 0.347-2.333l28.347-10.933c1.293-0.573 2.533 0.32 2.053 2.32z"></path>
</symbol>
<symbol id="icon-play" viewBox="0 0 32 32">
<title>play</title>
<path d="M30.662 5.003c-4.488-0.645-9.448-1.003-14.662-1.003s-10.174 0.358-14.662 1.003c-0.86 3.366-1.338 7.086-1.338 10.997s0.477 7.63 1.338 10.997c4.489 0.645 9.448 1.003 14.662 1.003s10.174-0.358 14.662-1.003c0.86-3.366 1.338-7.086 1.338-10.997s-0.477-7.63-1.338-10.997zM12 22v-12l10 6-10 6z"></path>
</symbol>
<symbol id="icon-facebook" viewBox="0 0 32 32">
<title>facebook</title>
<path d="M19 6h5v-6h-5c-3.86 0-7 3.14-7 7v3h-4v6h4v16h6v-16h5l1-6h-6v-3c0-0.542 0.458-1 1-1z"></path>
</symbol>
</defs>
</svg>
